<svg xmlns="http://www.w3.org/2000/svg" width="36" height="37" viewBox="0 0 36 37" fill="none">
<path opacity="0.4" d="M8.39409 20.0696C6.23646 18.976 3.66503 18.5031 2.22817e-06 18.2962C2.23334e-06 18.2371 2.23592e-06 18.2075 2.24109e-06 18.1484C2.24625e-06 18.0893 2.24884e-06 18.0598 2.25401e-06 18.0007C3.66503 17.7938 6.2069 17.3504 8.39409 16.2273C11.7044 14.5425 14.3941 11.8529 16.0788 8.54253C17.1724 6.38489 17.6453 3.81346 17.8522 0.148436C17.9113 0.148436 17.9409 0.148436 18 0.148436C18.0591 0.148436 18.0887 0.148436 18.1478 0.148436C18.3547 3.81346 18.798 6.35533 19.9212 8.54253C21.6059 11.8529 24.2956 14.5425 27.6059 16.2273C29.7635 17.3209 32.335 17.7938 36 18.0007C36 18.0598 36 18.0893 36 18.1484C36 18.2076 36 18.2371 36 18.2962C32.335 18.5031 29.7931 18.9465 27.6059 20.0696C24.2956 21.7543 21.6059 24.444 19.9212 27.7544C18.8276 29.912 18.3547 32.4834 18.1478 36.1484C18.0887 36.1484 18.0591 36.1484 18 36.1484C17.9409 36.1484 17.9113 36.1484 17.8522 36.1484C17.6453 32.4834 17.1724 29.9415 16.0788 27.7544C14.3941 24.444 11.7044 21.7543 8.39409 20.0696Z" fill="#4765E2"/>
</svg>