<svg xmlns="http://www.w3.org/2000/svg" width="60" height="60" viewBox="0 0 60 60" fill="none">
<rect width="60" height="60" rx="12" fill="#4765E2"/>
<path d="M41.5574 24.7198C42.6893 23.9259 43.6404 22.9343 44.4159 21.7932V21.7915C43.3813 22.24 42.2789 22.5373 41.1296 22.6817C42.312 21.984 43.2144 20.8876 43.6387 19.566C42.5363 20.2156 41.3191 20.6745 40.022 20.9305C38.9753 19.8307 37.4834 19.1484 35.856 19.1484C32.6984 19.1484 30.1563 21.6815 30.1563 24.7868C30.1563 25.2336 30.1946 25.6632 30.2884 26.0723C25.5468 25.8437 21.3512 23.5976 18.5327 20.1761C18.0406 21.0199 17.752 21.9857 17.752 23.0254C17.752 24.9776 18.7692 26.7081 20.2854 27.71C19.369 27.6928 18.4701 27.4299 17.7085 27.0157V27.0776C17.7085 29.8169 19.6855 32.0921 22.278 32.6163C21.8137 32.7417 21.3077 32.8019 20.7826 32.8019C20.4175 32.8019 20.0489 32.7813 19.7029 32.7056C20.4418 34.938 22.5388 36.5791 25.0322 36.6324C23.0917 38.1326 20.6279 39.0366 17.9606 39.0366C17.4929 39.0366 17.0443 39.0159 16.5957 38.9592C19.1221 40.5695 22.1163 41.4889 25.3451 41.4889C35.4091 41.4889 41.9694 33.1903 41.5574 24.7198Z" fill="white"/>
</svg>