<svg width="567" height="271" viewBox="0 0 567 271" fill="none" xmlns="http://www.w3.org/2000/svg">
<path d="M19.1446 18.1789H71.5166C77.55 18.1789 82.2482 20.256 85.611 24.4101C88.9739 28.5643 90.1608 33.757 89.1717 39.9882L86.5012 55.1212C85.1165 62.2426 81.1107 67.5837 74.4838 71.1444C77.4511 72.628 79.5776 74.804 80.8634 77.6723C82.1492 80.5407 82.4954 83.7057 81.902 87.1675L78.9347 104.674C77.8467 110.906 75.1762 115.851 70.9231 119.511C66.6701 123.17 61.5268 125 55.4934 125H0.450879L19.1446 18.1789ZM33.0907 60.9073H58.609C59.9938 60.9073 61.0323 60.8579 61.7247 60.759C62.417 60.5612 63.0599 60.0172 63.6534 59.127C64.3457 58.2368 64.8403 56.9015 65.137 55.1212L67.3624 42.362C67.6592 40.6806 67.5603 39.5431 67.0657 38.9497C66.6701 38.3562 65.681 38.0595 64.0985 38.0595H37.0965L33.0907 60.9073ZM25.2274 105.119H51.9327C55.6912 105.119 57.8672 103.191 58.4607 99.3333L61.1312 83.9035C61.2301 83.409 61.2796 82.9639 61.2796 82.5683C61.3785 82.1726 61.3785 81.8759 61.2796 81.6781C61.1807 81.3814 61.1312 81.1341 61.1312 80.9363C61.1312 80.7385 60.9828 80.5901 60.6861 80.4912C60.3894 80.2934 60.1916 80.1945 60.0927 80.1945C59.9938 80.0956 59.697 80.0461 59.2025 80.0461C58.8069 79.9472 58.5101 79.8978 58.3123 79.8978C58.2134 79.8978 57.8672 79.8978 57.2738 79.8978C56.6803 79.8978 56.2847 79.8978 56.0869 79.8978H29.6783L25.2274 105.119ZM151.77 100.965H118.24L107.262 125H84.2653L136.489 18.1789H161.414L176.399 125H154.441L151.77 100.965ZM149.545 80.7879L145.242 41.4718L127.439 80.7879H149.545ZM251.566 51.1154L253.198 42.0653C253.495 40.3838 253.396 39.2464 252.902 38.6529C252.506 38.0595 251.566 37.7628 250.083 37.7628H229.312C225.553 37.7628 223.377 39.6915 222.784 43.5489L221.004 53.9343C220.806 55.4179 220.905 56.4565 221.3 57.0499C221.795 57.5445 222.784 57.9895 224.268 58.3852L250.231 64.3197C256.66 65.9022 261.507 68.5727 264.771 72.3313C268.035 76.0898 269.123 80.7385 268.035 86.2773L264.622 105.268C263.534 111.499 260.864 116.444 256.611 120.104C252.358 123.764 247.214 125.593 241.181 125.593H208.393C202.26 125.593 197.513 123.516 194.15 119.362C190.886 115.307 189.798 110.114 190.886 103.784L193.111 90.8766H213.882L212.102 101.114C211.805 102.795 211.855 103.933 212.25 104.526C212.745 105.119 213.783 105.416 215.366 105.416H237.769C241.527 105.416 243.703 103.487 244.296 99.63L246.225 88.0577C246.423 86.5741 246.275 85.585 245.78 85.0904C245.384 84.497 244.445 84.0025 242.961 83.6068L216.998 77.6723C210.668 76.1887 205.871 73.5676 202.607 69.8091C199.442 65.9517 198.354 61.2535 199.343 55.7146L202.458 37.9111C203.546 31.6799 206.217 26.7345 210.47 23.0749C214.723 19.4152 219.866 17.5854 225.9 17.5854H256.907C263.04 17.5854 267.738 19.6625 271.002 23.8167C274.365 27.8719 275.502 33.0646 274.414 39.3948L272.337 51.1154H251.566ZM298.049 18.1789H366.741L363.18 38.3562H315.852L311.995 60.3139H350.273L346.712 80.4912H308.434L304.28 104.823H351.608L348.047 125H279.355L298.049 18.1789Z" fill="#4765E2"/>
<path d="M137.145 150.179H189.517C195.55 150.179 200.248 152.256 203.611 156.41C206.974 160.564 208.161 165.757 207.172 171.988L204.501 187.121C203.116 194.243 199.111 199.584 192.484 203.144C195.451 204.628 197.578 206.804 198.863 209.672C200.149 212.541 200.495 215.706 199.902 219.168L196.935 236.674C195.847 242.906 193.176 247.851 188.923 251.511C184.67 255.17 179.527 257 173.493 257H118.451L137.145 150.179ZM151.091 192.907H176.609C177.994 192.907 179.032 192.858 179.725 192.759C180.417 192.561 181.06 192.017 181.653 191.127C182.346 190.237 182.84 188.902 183.137 187.121L185.362 174.362C185.659 172.681 185.56 171.543 185.066 170.95C184.67 170.356 183.681 170.059 182.098 170.059H155.096L151.091 192.907ZM143.227 237.119H169.933C173.691 237.119 175.867 235.191 176.461 231.333L179.131 215.904C179.23 215.409 179.28 214.964 179.28 214.568C179.378 214.173 179.378 213.876 179.28 213.678C179.181 213.381 179.131 213.134 179.131 212.936C179.131 212.738 178.983 212.59 178.686 212.491C178.389 212.293 178.192 212.194 178.093 212.194C177.994 212.096 177.697 212.046 177.202 212.046C176.807 211.947 176.51 211.898 176.312 211.898C176.213 211.898 175.867 211.898 175.274 211.898C174.68 211.898 174.285 211.898 174.087 211.898H147.678L143.227 237.119ZM231.465 150.179H300.157L296.596 170.356H249.268L245.411 192.314H283.689L280.128 212.491H241.85L237.696 236.823H285.024L281.463 257H212.771L231.465 150.179ZM382.93 170.059H355.78L340.499 257H319.135L334.416 170.059H307.266L310.678 150.179H386.343L382.93 170.059ZM444.182 183.115L445.814 174.065C446.111 172.384 446.012 171.246 445.517 170.653C445.122 170.059 444.182 169.763 442.699 169.763H421.928C418.169 169.763 415.993 171.691 415.4 175.549L413.62 185.934C413.422 187.418 413.521 188.456 413.916 189.05C414.411 189.544 415.4 189.99 416.883 190.385L442.847 196.32C449.276 197.902 454.123 200.573 457.386 204.331C460.65 208.09 461.738 212.738 460.65 218.277L457.238 237.268C456.15 243.499 453.48 248.444 449.227 252.104C444.973 255.764 439.83 257.593 433.797 257.593H401.009C394.876 257.593 390.129 255.516 386.766 251.362C383.502 247.307 382.414 242.114 383.502 235.784L385.727 222.877H406.498L404.718 233.114C404.421 234.795 404.47 235.933 404.866 236.526C405.361 237.119 406.399 237.416 407.982 237.416H430.384C434.143 237.416 436.319 235.487 436.912 231.63L438.841 220.058C439.039 218.574 438.891 217.585 438.396 217.09C438 216.497 437.061 216.002 435.577 215.607L409.614 209.672C403.284 208.189 398.487 205.568 395.223 201.809C392.057 197.952 390.969 193.254 391.959 187.715L395.074 169.911C396.162 163.68 398.833 158.734 403.086 155.075C407.339 151.415 412.482 149.585 418.515 149.585H449.523C455.656 149.585 460.354 151.663 463.618 155.817C466.981 159.872 468.118 165.065 467.03 171.395L464.953 183.115H444.182Z" fill="black"/>
<path d="M398.115 76.5304C391.402 73.0977 383.402 71.6133 372 70.9639C372 70.7783 372 70.6855 372 70.5C372 70.3144 372 70.2217 372 70.0361C383.402 69.3867 391.31 67.9951 398.115 64.4696C408.414 59.1814 416.782 50.7389 422.023 40.3481C425.425 33.5755 426.897 25.5041 427.54 14C427.724 14 427.816 14 428 14C428.184 14 428.276 14 428.46 14C429.103 25.5041 430.483 33.4828 433.977 40.3481C439.218 50.7389 447.586 59.1814 457.885 64.4696C464.598 67.9023 472.598 69.3867 484 70.0361C484 70.2217 484 70.3145 484 70.5C484 70.6856 484 70.7783 484 70.9639C472.598 71.6133 464.69 73.0049 457.885 76.5304C447.586 81.8186 439.218 90.2611 433.977 100.652C430.575 107.424 429.103 115.496 428.46 127C428.276 127 428.184 127 428 127C427.816 127 427.724 127 427.54 127C426.897 115.496 425.425 107.517 422.023 100.652C416.782 90.2611 408.414 81.8186 398.115 76.5304Z" fill="url(#paint0_linear_823_2438)"/>
<defs>
<linearGradient id="paint0_linear_823_2438" x1="419.419" y1="47.448" x2="447.461" y2="119.3" gradientUnits="userSpaceOnUse">
<stop stop-color="#E73E53"/>
<stop offset="1" stop-color="#BC4655"/>
</linearGradient>
</defs>
</svg>
