<svg xmlns="http://www.w3.org/2000/svg" width="27" height="27" viewBox="0 0 27 27" fill="none">
<path d="M14.6606 3.60275C9.15965 3.14451 4.33317 7.23797 3.87494 12.7389C3.4167 18.2399 7.49937 23.0755 13.0003 23.5337C18.5112 23.9928 23.3477 19.9002 23.8059 14.3992C24.2641 8.89826 20.1715 4.06182 14.6606 3.60275ZM13.1763 21.5414C8.77156 21.1745 5.50111 17.3097 5.86803 12.9049C6.23496 8.50021 10.0998 5.22975 14.5045 5.59668C18.9093 5.9636 22.1797 9.82843 21.8128 14.2332C21.4459 18.6379 17.581 21.9084 13.1763 21.5414ZM17.4114 12.8631C18.2385 12.932 18.9618 12.3199 19.0307 11.4928C19.0996 10.6656 18.4875 9.94232 17.6604 9.87342C16.8333 9.80452 16.11 10.4166 16.0411 11.2437C15.9722 12.0709 16.5842 12.7942 17.4114 12.8631ZM10.4355 12.282C11.2626 12.3509 11.986 11.7388 12.0549 10.9117C12.1238 10.0845 11.5117 9.36122 10.6846 9.29232C9.85742 9.22342 9.13412 9.83549 9.06521 10.6626C8.99631 11.4898 9.60838 12.2131 10.4355 12.282ZM13.3838 19.0501C15.7058 19.2435 17.8002 17.9529 18.7668 15.9864L8.58203 15.138C9.20992 17.2373 11.0619 18.8567 13.3838 19.0501Z" fill="#4765E2"/>
</svg>