<svg xmlns="http://www.w3.org/2000/svg" width="26" height="26" viewBox="0 0 26 26" fill="none">
<path d="M21.4429 7.46329L21.3226 5.18647C21.2646 4.088 20.3184 3.23672 19.2199 3.29474L5.2394 4.03318C4.13095 4.09173 3.28966 5.03742 3.34768 6.13589L4.08612 20.1164C4.14414 21.2149 5.08037 22.0667 6.18882 22.0081L20.1693 21.2697C21.2678 21.2117 22.1191 20.2654 22.0611 19.167L21.9408 16.8902C22.5115 16.5095 22.8877 15.8588 22.8487 15.1198L22.5322 9.12815C22.4932 8.38919 22.0505 7.78169 21.4429 7.46329ZM20.535 9.23365L20.8515 15.2253L13.8612 15.5945L13.5447 9.60286L20.535 9.23365ZM6.08333 20.0109L5.34489 6.0304L19.3254 5.29196L19.4309 7.28918L13.4392 7.60565C12.3408 7.66367 11.4895 8.60989 11.5475 9.70836L11.864 15.7C11.922 16.7985 12.8682 17.6497 13.9667 17.5917L19.9584 17.2753L20.0638 19.2725L6.08333 20.0109Z" fill="#4765E2"/>
<path d="M16.7779 13.9384C17.6052 13.8947 18.2404 13.1886 18.1967 12.3613C18.153 11.5341 17.447 10.8988 16.6197 10.9425C15.7924 10.9862 15.1572 11.6923 15.2009 12.5196C15.2446 13.3468 15.9506 13.9821 16.7779 13.9384Z" fill="#4765E2"/>
</svg>